<svg xmlns="http://www.w3.org/2000/svg" viewBox="0 0 1630 1330" width="1630" height="1330" preserveAspectRatio="xMidYMid meet" style="width: 100%; height: 100%; transform: translate3d(0px, 0px, 0px);"><defs><clipPath id="__lottie_element_2"><rect width="1630" height="1330" x="0" y="0"></rect></clipPath></defs><g clip-path="url(#__lottie_element_2)"><g transform="matrix(0.17000000178813934,0,0,0.17000000178813934,635.4000244140625,584.4000244140625)" opacity="1" style="display: block;"><rect width="2160" height="2160" fill="#ffffff"></rect></g><g transform="matrix(1,0,0,1,885.75,1240)" opacity="1" style="display: block;"><path fill="rgb(255,255,255)" fill-opacity="1" d=" M-881.8280029296875,-539.5 C-881.8280029296875,-539.5 -882.0780029296875,-385 -882.0780029296875,-385 C-882.0780029296875,-385 -72.5,83.25 -72.5,83.25 C-72.5,83.25 -72.5,-72.5 -72.5,-72.5 C-72.5,-72.5 -881.8280029296875,-539.5 -881.8280029296875,-539.5z"></path><path stroke-linecap="butt" stroke-linejoin="miter" fill-opacity="0" stroke-miterlimit="4" stroke="rgb(0,0,0)" stroke-opacity="1" stroke-width="0" d=" M-881.8280029296875,-539.5 C-881.8280029296875,-539.5 -882.0780029296875,-385 -882.0780029296875,-385 C-882.0780029296875,-385 -72.5,83.25 -72.5,83.25 C-72.5,83.25 -72.5,-72.5 -72.5,-72.5 C-72.5,-72.5 -881.8280029296875,-539.5 -881.8280029296875,-539.5z"></path></g><g transform="matrix(1,0,0,1,885.75,1240)" opacity="1" style="display: block;"><path fill="rgb(204,204,204)" fill-opacity="1" d=" M738.6719970703125,-538.5 C738.6719970703125,-538.5 738.4219970703125,-384 738.4219970703125,-384 C738.4219970703125,-384 -72.5,83.25 -72.5,83.25 C-72.5,83.25 -72.5,-72.5 -72.5,-72.5 C-72.5,-72.5 738.6719970703125,-538.5 738.6719970703125,-538.5z"></path><path stroke-linecap="butt" stroke-linejoin="miter" fill-opacity="0" stroke-miterlimit="4" stroke="rgb(0,0,0)" stroke-opacity="1" stroke-width="0" d=" M738.6719970703125,-538.5 C738.6719970703125,-538.5 738.4219970703125,-384 738.4219970703125,-384 C738.4219970703125,-384 -72.5,83.25 -72.5,83.25 C-72.5,83.25 -72.5,-72.5 -72.5,-72.5 C-72.5,-72.5 738.6719970703125,-538.5 738.6719970703125,-538.5z"></path></g><g transform="matrix(1,0,0,1,885.75,1240)" opacity="1" style="display: block;"><path fill="rgb(204,204,204)" fill-opacity="1" d=" M-205.125,-461.875 C-205.125,-461.875 -71.625,-540.25 -71.625,-540.25 C-71.625,-540.25 -70.31199645996094,-696.468994140625 -70.31199645996094,-696.468994140625 C-70.31199645996094,-696.468994140625 -341.18798828125,-540.593994140625 -341.18798828125,-540.593994140625 C-341.18798828125,-540.593994140625 -205.125,-461.875 -205.125,-461.875z"></path><path stroke-linecap="butt" stroke-linejoin="miter" fill-opacity="0" stroke-miterlimit="4" stroke="rgb(0,0,0)" stroke-opacity="1" stroke-width="0" d=" M-205.125,-461.875 C-205.125,-461.875 -71.625,-540.25 -71.625,-540.25 C-71.625,-540.25 -70.31199645996094,-696.468994140625 -70.31199645996094,-696.468994140625 C-70.31199645996094,-696.468994140625 -341.18798828125,-540.593994140625 -341.18798828125,-540.593994140625 C-341.18798828125,-540.593994140625 -205.125,-461.875 -205.125,-461.875z"></path></g><g transform="matrix(1,0,0,1,885.75,1240)" opacity="1" style="display: block;"><path fill="rgb(255,255,255)" fill-opacity="1" d=" M63.75,-462.125 C63.75,-462.125 -71.625,-540.25 -71.625,-540.25 C-71.625,-540.25 -70.31199645996094,-696.468994140625 -70.31199645996094,-696.468994140625 C-70.31199645996094,-696.468994140625 199.31199645996094,-541.093994140625 199.31199645996094,-541.093994140625 C199.31199645996094,-541.093994140625 63.75,-462.125 63.75,-462.125z"></path><path stroke-linecap="butt" stroke-linejoin="miter" fill-opacity="0" stroke-miterlimit="4" stroke="rgb(0,0,0)" stroke-opacity="1" stroke-width="0" d=" M63.75,-462.125 C63.75,-462.125 -71.625,-540.25 -71.625,-540.25 C-71.625,-540.25 -70.31199645996094,-696.468994140625 -70.31199645996094,-696.468994140625 C-70.31199645996094,-696.468994140625 199.31199645996094,-541.093994140625 199.31199645996094,-541.093994140625 C199.31199645996094,-541.093994140625 63.75,-462.125 63.75,-462.125z"></path></g><g transform="matrix(1,0,0,1,885.75,1240)" opacity="1" style="display: block;"><path fill="rgb(242,242,242)" fill-opacity="1" d=" M-611.5,-695.93798828125 C-611.5,-695.93798828125 -340.56201171875,-851.93798828125 -340.56201171875,-851.93798828125 C-340.56201171875,-851.93798828125 -70.31199645996094,-696.468994140625 -70.31199645996094,-696.468994140625 C-70.31199645996094,-696.468994140625 -341.18798828125,-540.593994140625 -341.18798828125,-540.593994140625 C-341.18798828125,-540.593994140625 -611.5,-695.93798828125 -611.5,-695.93798828125z"></path><path stroke-linecap="butt" stroke-linejoin="miter" fill-opacity="0" stroke-miterlimit="4" stroke="rgb(0,0,0)" stroke-opacity="1" stroke-width="0" d=" M-611.5,-695.93798828125 C-611.5,-695.93798828125 -340.56201171875,-851.93798828125 -340.56201171875,-851.93798828125 C-340.56201171875,-851.93798828125 -70.31199645996094,-696.468994140625 -70.31199645996094,-696.468994140625 C-70.31199645996094,-696.468994140625 -341.18798828125,-540.593994140625 -341.18798828125,-540.593994140625 C-341.18798828125,-540.593994140625 -611.5,-695.93798828125 -611.5,-695.93798828125z"></path></g><g transform="matrix(1,0,0,1,885.75,1240)" opacity="1" style="display: block;"><path fill="rgb(242,242,242)" fill-opacity="1" d=" M-341.25,-852.375 C-341.25,-852.375 -72.625,-1007.75 -72.625,-1007.75 C-72.625,-1007.75 739.125,-539.625 739.125,-539.625 C739.125,-539.625 469,-383.875 469,-383.875 C469,-383.875 -341.25,-852.375 -341.25,-852.375z"></path><path stroke-linecap="butt" stroke-linejoin="miter" fill-opacity="0" stroke-miterlimit="4" stroke="rgb(0,0,0)" stroke-opacity="1" stroke-width="0" d=" M-341.25,-852.375 C-341.25,-852.375 -72.625,-1007.75 -72.625,-1007.75 C-72.625,-1007.75 739.125,-539.625 739.125,-539.625 C739.125,-539.625 469,-383.875 469,-383.875 C469,-383.875 -341.25,-852.375 -341.25,-852.375z"></path></g><g transform="matrix(1,0,0,1,885.75,1240)" opacity="0.61" style="display: block;"><path stroke-linecap="butt" stroke-linejoin="miter" fill-opacity="0" stroke-miterlimit="4" stroke="rgb(0,0,0)" stroke-opacity="1" stroke-width="1" d=" M-72.625,-1007.75 C-72.625,-1007.75 739.5,-539.125 739.5,-539.125 C739.5,-539.125 -72.625,-1007.75 -72.625,-1007.75z"></path></g><g transform="matrix(1,0,0,1,725.75,1240)" opacity="0.61" style="display: block;"><path stroke-linecap="butt" stroke-linejoin="miter" fill-opacity="0" stroke-miterlimit="4" stroke="rgb(0,0,0)" stroke-opacity="1" stroke-width="1" d=" M-46.375,-930.375 C-46.375,-930.375 763.25,-462.875 763.25,-462.875 C763.25,-462.875 -46.375,-930.375 -46.375,-930.375z"></path></g><g transform="matrix(1,0,0,1,725.75,1240)" opacity="0.61" style="display: block;"><path stroke-linecap="butt" stroke-linejoin="miter" fill-opacity="0" stroke-miterlimit="4" stroke="rgb(0,0,0)" stroke-opacity="1" stroke-width="1" d=" M-180.625,-852 C-180.625,-852 358.95098876953125,-540.4140014648438 358.95098876953125,-540.4140014648438 C358.95098876953125,-540.4140014648438 -180.625,-852 -180.625,-852z"></path></g><g transform="matrix(1,0,0,1,725.75,1240)" opacity="0.61" style="display: block;"><path stroke-linecap="butt" stroke-linejoin="miter" fill-opacity="0" stroke-miterlimit="4" stroke="rgb(0,0,0)" stroke-opacity="1" stroke-width="1" d=" M-316.25,-773.625 C-316.25,-773.625 -47.52899932861328,-618.5170288085938 -47.52899932861328,-618.5170288085938 C-47.52899932861328,-618.5170288085938 -316.25,-773.625 -316.25,-773.625z"></path></g><g transform="matrix(1,0,0,1,725.75,1240)" opacity="0.61" style="display: block;"><path stroke-linecap="butt" stroke-linejoin="miter" fill-opacity="0" stroke-miterlimit="4" stroke="rgb(0,0,0)" stroke-opacity="1" stroke-width="1" d=" M-45.75,-461.75 C-45.75,-461.75 -47.52899932861328,-618.5170288085938 -47.52899932861328,-618.5170288085938 C-47.52899932861328,-618.5170288085938 -45.75,-461.75 -45.75,-461.75z"></path></g><g transform="matrix(1,0,0,1,725.75,1240)" opacity="0.61" style="display: block;"><path stroke-linecap="butt" stroke-linejoin="miter" fill-opacity="0" stroke-miterlimit="4" stroke="rgb(0,0,0)" stroke-opacity="1" stroke-width="1" d=" M88.11199951171875,-540.260009765625 C88.11199951171875,-540.260009765625 223.67300415039062,-462.04901123046875 223.67300415039062,-462.04901123046875 C223.67300415039062,-462.04901123046875 88.11199951171875,-540.260009765625 88.11199951171875,-540.260009765625z"></path></g><g transform="matrix(-0.5,0.8660253882408142,-0.8660253882408142,-0.5,542.5,898.75)" opacity="0.61" style="display: block;"><path stroke-linecap="butt" stroke-linejoin="miter" fill-opacity="0" stroke-miterlimit="4" stroke="rgb(0,0,0)" stroke-opacity="1" stroke-width="1" d=" M-309.0509948730469,-136.62399291992188 C-309.0509948730469,-136.62399291992188 -173.43499755859375,-58.32500076293945 -173.43499755859375,-58.32500076293945 C-173.43499755859375,-58.32500076293945 -309.0509948730469,-136.62399291992188 -309.0509948730469,-136.62399291992188z"></path></g><g transform="matrix(-0.5,0.8660253882408142,-0.8660253882408142,-0.5,542.5,898.75)" opacity="0.61" style="display: block;"><path stroke-linecap="butt" stroke-linejoin="miter" fill-opacity="0" stroke-miterlimit="4" stroke="rgb(0,0,0)" stroke-opacity="1" stroke-width="1" d=" M-711.281982421875,-368.8559875488281 C-711.281982421875,-368.8559875488281 -443.4549865722656,-214.2239990234375 -443.4549865722656,-214.2239990234375 C-443.4549865722656,-214.2239990234375 -711.281982421875,-368.8559875488281 -711.281982421875,-368.8559875488281z"></path></g><g transform="matrix(-0.5,0.8660253882408142,-0.8660253882408142,-0.5,542.5,898.75)" opacity="0.61" style="display: block;"><path stroke-linecap="butt" stroke-linejoin="miter" fill-opacity="0" stroke-miterlimit="4" stroke="rgb(0,0,0)" stroke-opacity="1" stroke-width="1" d=" M-308.0400085449219,-291.9200134277344 C-308.0400085449219,-291.9200134277344 -443.4549865722656,-214.2239990234375 -443.4549865722656,-214.2239990234375 C-443.4549865722656,-214.2239990234375 -308.0400085449219,-291.9200134277344 -308.0400085449219,-291.9200134277344z"></path></g><g transform="matrix(-0.5,0.8660253882408142,-0.8660253882408142,-0.5,406.375,820.5020141601562)" opacity="0.61" style="display: block;"><path stroke-linecap="butt" stroke-linejoin="miter" fill-opacity="0" stroke-miterlimit="4" stroke="rgb(0,0,0)" stroke-opacity="1" stroke-width="1" d=" M-711.281982421875,-368.8559875488281 C-711.281982421875,-368.8559875488281 -174.21499633789062,-58.775001525878906 -174.21499633789062,-58.775001525878906 C-174.21499633789062,-58.775001525878906 -711.281982421875,-368.8559875488281 -711.281982421875,-368.8559875488281z"></path></g><g transform="matrix(-0.5,0.8660253882408142,-0.8660253882408142,-0.5,272.375,742.7669677734375)" opacity="0.61" style="display: block;"><path stroke-linecap="butt" stroke-linejoin="miter" fill-opacity="0" stroke-miterlimit="4" stroke="rgb(0,0,0)" stroke-opacity="1" stroke-width="1" d=" M-711.281982421875,-368.8559875488281 C-711.281982421875,-368.8559875488281 -173.24000549316406,-58.2130012512207 -173.24000549316406,-58.2130012512207 C-173.24000549316406,-58.2130012512207 -711.281982421875,-368.8559875488281 -711.281982421875,-368.8559875488281z"></path></g><g transform="matrix(-0.5,0.8660253882408142,-0.8660253882408142,-0.5,137.75,664.64697265625)" opacity="0.61" style="display: block;"><path stroke-linecap="butt" stroke-linejoin="miter" fill-opacity="0" stroke-miterlimit="4" stroke="rgb(0,0,0)" stroke-opacity="1" stroke-width="1" d=" M-711.281982421875,-368.8559875488281 C-711.281982421875,-368.8559875488281 -442.50201416015625,-213.67300415039062 -442.50201416015625,-213.67300415039062 C-442.50201416015625,-213.67300415039062 -711.281982421875,-368.8559875488281 -711.281982421875,-368.8559875488281z"></path></g><g transform="matrix(1,0,0,1,725.75,1240)" opacity="0.61" style="display: block;"><path stroke-linecap="butt" stroke-linejoin="miter" fill-opacity="0" stroke-miterlimit="4" stroke="rgb(0,0,0)" stroke-opacity="1" stroke-width="1" d=" M-720.75,-540 C-720.75,-540 -721.5,-385 -721.5,-385 C-721.5,-385 -720.75,-540 -720.75,-540z"></path></g><g transform="matrix(1,0,0,1,725.75,1240)" opacity="0.61" style="display: block;"><path stroke-linecap="butt" stroke-linejoin="miter" fill-opacity="0" stroke-miterlimit="4" stroke="rgb(0,0,0)" stroke-opacity="1" stroke-width="1" d=" M-585.906005859375,-462 C-585.906005859375,-462 -586.656005859375,-307 -586.656005859375,-307 C-586.656005859375,-307 -585.906005859375,-462 -585.906005859375,-462z"></path></g><g transform="matrix(1,0,0,1,725.75,1240)" opacity="0.61" style="display: block;"><path stroke-linecap="butt" stroke-linejoin="miter" fill-opacity="0" stroke-miterlimit="4" stroke="rgb(0,0,0)" stroke-opacity="1" stroke-width="1" d=" M-451.781005859375,-383.8909912109375 C-451.781005859375,-383.8909912109375 -452.531005859375,-228.89100646972656 -452.531005859375,-228.89100646972656 C-452.531005859375,-228.89100646972656 -451.781005859375,-383.8909912109375 -451.781005859375,-383.8909912109375z"></path></g><g transform="matrix(1,0,0,1,725.75,1240)" opacity="0.61" style="display: block;"><path stroke-linecap="butt" stroke-linejoin="miter" fill-opacity="0" stroke-miterlimit="4" stroke="rgb(0,0,0)" stroke-opacity="1" stroke-width="1" d=" M-46.53099822998047,-149.75 C-46.53099822998047,-149.75 -47.28099822998047,4.125 -47.28099822998047,4.125 C-47.28099822998047,4.125 -46.53099822998047,-149.75 -46.53099822998047,-149.75z M-180.781005859375,-227.76600646972656 C-180.781005859375,-227.76600646972656 -181.531005859375,-72.76599884033203 -181.531005859375,-72.76599884033203 C-181.531005859375,-72.76599884033203 -180.781005859375,-227.76600646972656 -180.781005859375,-227.76600646972656z M-315.531005859375,-305.7659912109375 C-315.531005859375,-305.7659912109375 -316.281005859375,-150.76600646972656 -316.281005859375,-150.76600646972656 C-316.281005859375,-150.76600646972656 -315.531005859375,-305.7659912109375 -315.531005859375,-305.7659912109375z"></path></g><g transform="matrix(1,0,0,1,1267.75,1564)" opacity="0.61" style="display: block;"><path stroke-linecap="butt" stroke-linejoin="miter" fill-opacity="0" stroke-miterlimit="4" stroke="rgb(0,0,0)" stroke-opacity="1" stroke-width="1" d=" M-453.281005859375,-395.8909912109375 C-453.281005859375,-395.8909912109375 -454.031005859375,-240.89100646972656 -454.031005859375,-240.89100646972656 C-454.031005859375,-240.89100646972656 -453.281005859375,-395.8909912109375 -453.281005859375,-395.8909912109375z"></path></g><g transform="matrix(1,0,0,1,1267.75,1564)" opacity="0.61" style="display: block;"><path stroke-linecap="butt" stroke-linejoin="miter" fill-opacity="0" stroke-miterlimit="4" stroke="rgb(0,0,0)" stroke-opacity="1" stroke-width="1" d=" M-319.156005859375,-473.1409912109375 C-319.156005859375,-473.1409912109375 -319.906005859375,-318.1409912109375 -319.906005859375,-318.1409912109375 C-319.906005859375,-318.1409912109375 -319.156005859375,-473.1409912109375 -319.156005859375,-473.1409912109375z"></path></g><g transform="matrix(1,0,0,1,1267.75,1564)" opacity="0.61" style="display: block;"><path stroke-linecap="butt" stroke-linejoin="miter" fill-opacity="0" stroke-miterlimit="4" stroke="rgb(0,0,0)" stroke-opacity="1" stroke-width="1" d=" M-183.031005859375,-551.75 C-183.031005859375,-551.75 -183.781005859375,-396.75 -183.781005859375,-396.75 C-183.781005859375,-396.75 -183.031005859375,-551.75 -183.031005859375,-551.75z"></path></g><g transform="matrix(1,0,0,1,1267.75,1564)" opacity="0.61" style="display: block;"><path stroke-linecap="butt" stroke-linejoin="miter" fill-opacity="0" stroke-miterlimit="4" stroke="rgb(0,0,0)" stroke-opacity="1" stroke-width="1" d=" M-48.78099822998047,-629.375 C-48.78099822998047,-629.375 -49.53099822998047,-474.375 -49.53099822998047,-474.375 C-49.53099822998047,-474.375 -48.78099822998047,-629.375 -48.78099822998047,-629.375z"></path></g><g transform="matrix(1,0,0,1,1267.75,1564)" opacity="0.61" style="display: block;"><path stroke-linecap="butt" stroke-linejoin="miter" fill-opacity="0" stroke-miterlimit="4" stroke="rgb(0,0,0)" stroke-opacity="1" stroke-width="1" d=" M86.71900177001953,-707.625 C86.71900177001953,-707.625 85.93800354003906,-551.5 85.93800354003906,-551.5 C85.93800354003906,-551.5 86.71900177001953,-707.625 86.71900177001953,-707.625z"></path></g><g transform="matrix(1,0,0,1,1267.75,1564)" opacity="0.61" style="display: block;"><path stroke-linecap="butt" stroke-linejoin="miter" fill-opacity="0" stroke-miterlimit="4" stroke="rgb(0,0,0)" stroke-opacity="1" stroke-width="1" d=" M221.593994140625,-786.125 C221.593994140625,-786.125 220.81199645996094,-630 220.81199645996094,-630 C220.81199645996094,-630 221.593994140625,-786.125 221.593994140625,-786.125z"></path></g><g transform="matrix(1,0,0,1,1267.75,1564)" opacity="0.61" style="display: block;"><path stroke-linecap="butt" stroke-linejoin="miter" fill-opacity="0" stroke-miterlimit="4" stroke="rgb(0,0,0)" stroke-opacity="1" stroke-width="1" d=" M356.843994140625,-863.125 C356.843994140625,-863.125 356.06201171875,-707 356.06201171875,-707 C356.06201171875,-707 356.843994140625,-863.125 356.843994140625,-863.125z"></path></g><g transform="matrix(1,0,0,1,1267.75,1564)" opacity="0.61" style="display: block;"><path stroke-linecap="butt" stroke-linejoin="miter" fill-opacity="0" stroke-miterlimit="4" stroke="rgb(0,0,0)" stroke-opacity="1" stroke-width="1" d=" M-453.531005859375,-1019.875 C-453.531005859375,-1019.875 -453.18798828125,-863.5 -453.18798828125,-863.5 C-453.18798828125,-863.5 -453.531005859375,-1019.875 -453.531005859375,-1019.875z"></path></g><g transform="matrix(1,0,0,1,616.75,1083)" opacity="1" style="display: block;"><path fill="rgb(31,98,74)" fill-opacity="1" d=" M468.43798828125,-539 C468.43798828125,-539 468.31201171875,-227.75 468.31201171875,-227.75 C468.31201171875,-227.75 197.5,-73 197.5,-73 C197.5,-73 198.625,-383.875 198.625,-383.875 C198.625,-383.875 468.43798828125,-539 468.43798828125,-539z"></path><path stroke-linecap="butt" stroke-linejoin="miter" fill-opacity="0" stroke-miterlimit="4" stroke="rgb(0,0,0)" stroke-opacity="1" stroke-width="0" d=" M468.43798828125,-539 C468.43798828125,-539 468.31201171875,-227.75 468.31201171875,-227.75 C468.31201171875,-227.75 197.5,-73 197.5,-73 C197.5,-73 198.625,-383.875 198.625,-383.875 C198.625,-383.875 468.43798828125,-539 468.43798828125,-539z"></path></g><g transform="matrix(1,0,0,1,616.75,1083)" opacity="1" style="display: block;"><path fill="rgb(176,242,220)" fill-opacity="1" d=" M-71.31199645996094,-538.8740234375 C-71.31199645996094,-538.8740234375 -71.93800354003906,-227.49899291992188 -71.93800354003906,-227.49899291992188 C-71.93800354003906,-227.49899291992188 197.5,-73 197.5,-73 C197.5,-73 199.125,-384 199.125,-384 C199.125,-384 -71.31199645996094,-538.8740234375 -71.31199645996094,-538.8740234375z"></path><path stroke-linecap="butt" stroke-linejoin="miter" fill-opacity="0" stroke-miterlimit="4" stroke="rgb(0,0,0)" stroke-opacity="1" stroke-width="0" d=" M-71.31199645996094,-538.8740234375 C-71.31199645996094,-538.8740234375 -71.93800354003906,-227.49899291992188 -71.93800354003906,-227.49899291992188 C-71.93800354003906,-227.49899291992188 197.5,-73 197.5,-73 C197.5,-73 199.125,-384 199.125,-384 C199.125,-384 -71.31199645996094,-538.8740234375 -71.31199645996094,-538.8740234375z"></path></g><g transform="matrix(1,0,0,1,616.75,1238.25)" opacity="1" style="display: block;"><path fill="rgb(36,204,133)" fill-opacity="1" d=" M-71.125,-694.1240234375 C-71.125,-694.1240234375 198.125,-850.155029296875 198.125,-850.155029296875 C198.125,-850.155029296875 467.875,-694.218994140625 467.875,-694.218994140625 C467.875,-694.218994140625 198.68699645996094,-539.25 198.68699645996094,-539.25 C198.68699645996094,-539.25 -71.125,-694.1240234375 -71.125,-694.1240234375z"></path><path stroke-linecap="butt" stroke-linejoin="miter" fill-opacity="0" stroke-miterlimit="4" stroke="rgb(0,0,0)" stroke-opacity="1" stroke-width="0" d=" M-71.125,-694.1240234375 C-71.125,-694.1240234375 198.125,-850.155029296875 198.125,-850.155029296875 C198.125,-850.155029296875 467.875,-694.218994140625 467.875,-694.218994140625 C467.875,-694.218994140625 198.68699645996094,-539.25 198.68699645996094,-539.25 C198.68699645996094,-539.25 -71.125,-694.1240234375 -71.125,-694.1240234375z"></path></g><g transform="matrix(1,0,0,1,885.75,1240)" opacity="1" style="display: block;"><path fill="rgb(242,242,242)" fill-opacity="1" d=" M-881.968994140625,-539.843994140625 C-881.968994140625,-539.843994140625 -611.343994140625,-696.968994140625 -611.343994140625,-696.968994140625 C-611.343994140625,-696.968994140625 198.375,-228.375 198.375,-228.375 C198.375,-228.375 -72.5,-72.5 -72.5,-72.5 C-72.5,-72.5 -881.968994140625,-539.843994140625 -881.968994140625,-539.843994140625z"></path><path stroke-linecap="butt" stroke-linejoin="miter" fill-opacity="0" stroke-miterlimit="4" stroke="rgb(0,0,0)" stroke-opacity="1" stroke-width="0" d=" M-881.968994140625,-539.843994140625 C-881.968994140625,-539.843994140625 -611.343994140625,-696.968994140625 -611.343994140625,-696.968994140625 C-611.343994140625,-696.968994140625 198.375,-228.375 198.375,-228.375 C198.375,-228.375 -72.5,-72.5 -72.5,-72.5 C-72.5,-72.5 -881.968994140625,-539.843994140625 -881.968994140625,-539.843994140625z"></path></g><g transform="matrix(1,0,0,1,885.75,1240)" opacity="1" style="display: block;"><path fill="rgb(242,242,242)" fill-opacity="1" d=" M-71.56199645996094,-384.68798828125 C-71.56199645996094,-384.68798828125 200.56199645996094,-541.5 200.56199645996094,-541.5 C200.56199645996094,-541.5 469.125,-384 469.125,-384 C469.125,-384 198.25,-228.125 198.25,-228.125 C198.25,-228.125 -71.56199645996094,-384.68798828125 -71.56199645996094,-384.68798828125z"></path><path stroke-linecap="butt" stroke-linejoin="miter" fill-opacity="0" stroke-miterlimit="4" stroke="rgb(0,0,0)" stroke-opacity="1" stroke-width="0" d=" M-71.56199645996094,-384.68798828125 C-71.56199645996094,-384.68798828125 200.56199645996094,-541.5 200.56199645996094,-541.5 C200.56199645996094,-541.5 469.125,-384 469.125,-384 C469.125,-384 198.25,-228.125 198.25,-228.125 C198.25,-228.125 -71.56199645996094,-384.68798828125 -71.56199645996094,-384.68798828125z"></path></g><g style="display: none;" transform="matrix(1,0,0,1,879,568)" opacity="0.01995360000000403"><g opacity="1" transform="matrix(1,0,0,1,0,0)"><path fill="rgb(36,204,133)" fill-opacity="1" d=" M206.25,-24 C206.25,-24 205.75,131.25 205.75,131.25 C205.75,131.25 -63.75,287.75 -63.75,287.75 C-63.75,287.75 -335,131.5 -335,131.5 C-335,131.5 -334,-23.5 -334,-23.5 C-334,-23.5 -604,132.5 -604,132.5 C-604,132.5 -65.25,444.25 -65.25,444.25 C-65.25,444.25 476,132.25 476,132.25 C476,132.25 206.25,-24 206.25,-24z"></path><path stroke-linecap="butt" stroke-linejoin="miter" fill-opacity="0" stroke-miterlimit="4" stroke="rgb(255,0,0)" stroke-opacity="1" stroke-width="0" d=" M206.25,-24 C206.25,-24 205.75,131.25 205.75,131.25 C205.75,131.25 -63.75,287.75 -63.75,287.75 C-63.75,287.75 -335,131.5 -335,131.5 C-335,131.5 -334,-23.5 -334,-23.5 C-334,-23.5 -604,132.5 -604,132.5 C-604,132.5 -65.25,444.25 -65.25,444.25 C-65.25,444.25 476,132.25 476,132.25 C476,132.25 206.25,-24 206.25,-24z"></path></g></g><g style="display: none;" transform="matrix(1,0,0,1,879,568)" opacity="0.019950000000004308"><g opacity="1" transform="matrix(1,0,0,1,0,0)"><path fill="rgb(36,204,133)" fill-opacity="1" d=" M-200.125,-257.5 C-200.125,-257.5 -65.02100372314453,-334.5419921875 -65.02100372314453,-334.5419921875 C-65.02100372314453,-334.5419921875 745.666015625,132.0070037841797 745.666015625,132.0070037841797 C745.666015625,132.0070037841797 -63.75,600 -63.75,600 C-63.75,600 -873.75,132.5 -873.75,132.5 C-873.75,132.5 -200.375,-257.625 -200.375,-257.625 C-200.375,-257.625 -65.25,-179.5 -65.25,-179.5 C-65.25,-179.5 -604,132.5 -604,132.5 C-604,132.5 -65.25,444.25 -65.25,444.25 C-65.25,444.25 476,132.25 476,132.25 C476,132.25 -200.125,-257.5 -200.125,-257.5z"></path><path stroke-linecap="butt" stroke-linejoin="miter" fill-opacity="0" stroke-miterlimit="4" stroke="rgb(255,0,0)" stroke-opacity="1" stroke-width="0" d=" M-200.125,-257.5 C-200.125,-257.5 -65.02100372314453,-334.5419921875 -65.02100372314453,-334.5419921875 C-65.02100372314453,-334.5419921875 745.666015625,132.0070037841797 745.666015625,132.0070037841797 C745.666015625,132.0070037841797 -63.75,600 -63.75,600 C-63.75,600 -873.75,132.5 -873.75,132.5 C-873.75,132.5 -200.375,-257.625 -200.375,-257.625 C-200.375,-257.625 -65.25,-179.5 -65.25,-179.5 C-65.25,-179.5 -604,132.5 -604,132.5 C-604,132.5 -65.25,444.25 -65.25,444.25 C-65.25,444.25 476,132.25 476,132.25 C476,132.25 -200.125,-257.5 -200.125,-257.5z"></path></g></g><g style="display: none;" transform="matrix(1,0,0,1,879,568)" opacity="0.01994640000000345"><g opacity="1" transform="matrix(1,0,0,1,0,0)"><path fill="rgb(36,204,133)" fill-opacity="1" d=" M744.25,288.5 C744.25,288.5 745.666015625,132.00799560546875 745.666015625,132.00799560546875 C745.666015625,132.00799560546875 -63.75,600 -63.75,600 C-63.75,600 -873.75,132.5 -873.75,132.5 C-873.75,132.5 -873.5,287 -873.5,287 C-873.5,287 -65,755 -65,755 C-65,755 744.25,288.5 744.25,288.5z"></path><path stroke-linecap="butt" stroke-linejoin="miter" fill-opacity="0" stroke-miterlimit="4" stroke="rgb(255,0,0)" stroke-opacity="1" stroke-width="0" d=" M744.25,288.5 C744.25,288.5 745.666015625,132.00799560546875 745.666015625,132.00799560546875 C745.666015625,132.00799560546875 -63.75,600 -63.75,600 C-63.75,600 -873.75,132.5 -873.75,132.5 C-873.75,132.5 -873.5,287 -873.5,287 C-873.5,287 -65,755 -65,755 C-65,755 744.25,288.5 744.25,288.5z"></path></g></g><g transform="matrix(-0.5,0.8660253882408142,-0.8660253882408142,-0.5,272.375,742.7669677734375)" opacity="0.61" style="display: block;"><path stroke-linecap="butt" stroke-linejoin="miter" fill-opacity="0" stroke-miterlimit="4" stroke="rgb(0,0,0)" stroke-opacity="1" stroke-width="1" d=" M-173.24000549316406,-58.2130012512207 C-173.24000549316406,-58.2130012512207 96.73999786376953,97.66300201416016 96.73999786376953,97.66300201416016 C96.73999786376953,97.66300201416016 -173.24000549316406,-58.2130012512207 -173.24000549316406,-58.2130012512207z"></path></g><g transform="matrix(1,0,0,1,725.75,1240)" opacity="0.61" style="display: block;"><path stroke-linecap="butt" stroke-linejoin="miter" fill-opacity="0" stroke-miterlimit="4" stroke="rgb(0,0,0)" stroke-opacity="1" stroke-width="1" d=" M628.5,-384.875 C628.5,-384.875 358.95098876953125,-540.4140014648438 358.95098876953125,-540.4140014648438 C358.95098876953125,-540.4140014648438 628.5,-384.875 628.5,-384.875z"></path></g><g transform="matrix(1,0,0,1,725.75,1240)" opacity="0.61" style="display: block;"><path stroke-linecap="butt" stroke-linejoin="miter" fill-opacity="0" stroke-miterlimit="4" stroke="rgb(0,0,0)" stroke-opacity="1" stroke-width="1" d=" M-452.125,-695.75 C-452.125,-695.75 358.25,-229.125 358.25,-229.125 C358.25,-229.125 -452.125,-695.75 -452.125,-695.75z"></path></g><g transform="matrix(-0.5,0.8660253882408142,-0.8660253882408142,-0.5,677.93798828125,976)" opacity="0.61" style="display: block;"><path stroke-linecap="butt" stroke-linejoin="miter" fill-opacity="0" stroke-miterlimit="4" stroke="rgb(0,0,0)" stroke-opacity="1" stroke-width="1" d=" M-711.281982421875,-368.8559875488281 C-711.281982421875,-368.8559875488281 96.73999786376953,97.66300201416016 96.73999786376953,97.66300201416016 C96.73999786376953,97.66300201416016 -711.281982421875,-368.8559875488281 -711.281982421875,-368.8559875488281z"></path></g><g transform="matrix(-0.5,0.8660253882408142,-0.8660253882408142,-0.5,542.5,898.75)" opacity="0.61" style="display: block;"><path stroke-linecap="butt" stroke-linejoin="miter" fill-opacity="0" stroke-miterlimit="4" stroke="rgb(0,0,0)" stroke-opacity="1" stroke-width="1" d=" M-173.54400634765625,-58.38800048828125 C-173.54400634765625,-58.38800048828125 96.73999786376953,97.66300201416016 96.73999786376953,97.66300201416016 C96.73999786376953,97.66300201416016 -173.54400634765625,-58.38800048828125 -173.54400634765625,-58.38800048828125z"></path></g><g transform="matrix(-0.5,0.8660253882408142,-0.8660253882408142,-0.5,406.375,820.5020141601562)" opacity="0.61" style="display: block;"><path stroke-linecap="butt" stroke-linejoin="miter" fill-opacity="0" stroke-miterlimit="4" stroke="rgb(0,0,0)" stroke-opacity="1" stroke-width="1" d=" M-174.21499633789062,-58.775001525878906 C-174.21499633789062,-58.775001525878906 96.73999786376953,97.66300201416016 96.73999786376953,97.66300201416016 C96.73999786376953,97.66300201416016 -174.21499633789062,-58.775001525878906 -174.21499633789062,-58.775001525878906z"></path></g><g transform="matrix(-0.5,0.8660253882408142,-0.8660253882408142,-0.5,814.25,1054)" opacity="0.61" style="display: block;"><path stroke-linecap="butt" stroke-linejoin="miter" fill-opacity="0" stroke-miterlimit="4" stroke="rgb(0,0,0)" stroke-opacity="1" stroke-width="1" d=" M-711.281982421875,-368.8559875488281 C-711.281982421875,-368.8559875488281 98.08200073242188,99.48699951171875 98.08200073242188,99.48699951171875 C98.08200073242188,99.48699951171875 -711.281982421875,-368.8559875488281 -711.281982421875,-368.8559875488281z"></path></g><g transform="matrix(1,0,0,1,725.75,1240)" opacity="0.61" style="display: block;"><path stroke-linecap="butt" stroke-linejoin="miter" fill-opacity="0" stroke-miterlimit="4" stroke="rgb(0,0,0)" stroke-opacity="1" stroke-width="1" d=" M-587.125,-617.625 C-587.125,-617.625 223.5,-150 223.5,-150 C223.5,-150 -587.125,-617.625 -587.125,-617.625z"></path></g><g transform="matrix(1,0,0,1,725.75,1240)" opacity="0.61" style="display: block;"><path stroke-linecap="butt" stroke-linejoin="miter" fill-opacity="0" stroke-miterlimit="4" stroke="rgb(0,0,0)" stroke-opacity="1" stroke-width="1" d=" M493.5,-306.375 C493.5,-306.375 223.67300415039062,-462.04901123046875 223.67300415039062,-462.04901123046875 C223.67300415039062,-462.04901123046875 493.5,-306.375 493.5,-306.375z"></path></g><g transform="matrix(-0.5,0.8660253882408142,-0.8660253882408142,-0.5,137.75,664.64697265625)" opacity="0.61" style="display: block;"><path stroke-linecap="butt" stroke-linejoin="miter" fill-opacity="0" stroke-miterlimit="4" stroke="rgb(0,0,0)" stroke-opacity="1" stroke-width="1" d=" M96.73999786376953,97.66300201416016 C96.73999786376953,97.66300201416016 -442.50201416015625,-213.67300415039062 -442.50201416015625,-213.67300415039062 C-442.50201416015625,-213.67300415039062 96.73999786376953,97.66300201416016 96.73999786376953,97.66300201416016z"></path></g><g transform="matrix(-0.5,0.8660253882408142,-0.8660253882408142,-0.5,949.0009765625,1132.25)" opacity="0.61" style="display: block;"><path stroke-linecap="butt" stroke-linejoin="miter" fill-opacity="0" stroke-miterlimit="4" stroke="rgb(0,0,0)" stroke-opacity="1" stroke-width="1" d=" M-711.9650268554688,-369.03900146484375 C-711.9650268554688,-369.03900146484375 98.08200073242188,99.48699951171875 98.08200073242188,99.48699951171875 C98.08200073242188,99.48699951171875 -711.9650268554688,-369.03900146484375 -711.9650268554688,-369.03900146484375z"></path></g><g transform="matrix(-0.5,0.8660253882408142,-0.8660253882408142,-0.5,949.0009765625,1288)" opacity="0.61" style="display: block;"><path stroke-linecap="butt" stroke-linejoin="miter" fill-opacity="0" stroke-miterlimit="4" stroke="rgb(0,0,0)" stroke-opacity="1" stroke-width="1" d=" M-711.9650268554688,-369.03900146484375 C-711.9650268554688,-369.03900146484375 97.66100311279297,99.00800323486328 97.66100311279297,99.00800323486328 C97.66100311279297,99.00800323486328 -711.9650268554688,-369.03900146484375 -711.9650268554688,-369.03900146484375z"></path></g><g transform="matrix(1,0,0,1,725.75,1240)" opacity="0.61" style="display: block;"><path stroke-linecap="butt" stroke-linejoin="miter" fill-opacity="0" stroke-miterlimit="4" stroke="rgb(0,0,0)" stroke-opacity="1" stroke-width="1" d=" M-720.75,-540 C-720.75,-540 88,-72.625 88,-72.625 C88,-72.625 -720.75,-540 -720.75,-540z"></path></g><g transform="matrix(1,0,0,1,725.75,1240)" opacity="0.61" style="display: block;"><path stroke-linecap="butt" stroke-linejoin="miter" fill-opacity="0" stroke-miterlimit="4" stroke="rgb(0,0,0)" stroke-opacity="1" stroke-width="1" d=" M-721.281005859375,-385.2969970703125 C-721.281005859375,-385.2969970703125 88.96900177001953,82.9530029296875 88.96900177001953,82.9530029296875 C88.96900177001953,82.9530029296875 -721.281005859375,-385.2969970703125 -721.281005859375,-385.2969970703125z"></path></g></g></svg>