<svg xmlns="http://www.w3.org/2000/svg" viewBox="0 0 2160 2160" width="2160" height="840" preserveAspectRatio="xMidYMid slice" style="width: 100%; height: 100%; transform: translate3d(0px, 0px, 0px);">
  <defs>
    <clipPath id="__lottie_element_2">
      <rect width="2160" height="2160" x="0" y="0"></rect>
    </clipPath>
  </defs>
  <g clip-path="url(#__lottie_element_2)">
    <g transform="matrix(1,0,0,1,1080,1080)" opacity="1" style="display: block;">
      <path stroke-linecap="butt" stroke-linejoin="miter" fill-opacity="0" stroke-miterlimit="4" stroke="rgb(36,204,133)" stroke-opacity="1" stroke-width="45" d="M0 0"></path>
    </g>
    <g transform="matrix(1,0,0,1,1150,1080)" opacity="1" style="display: block;">
      <path fill="rgb(230,0,122)" fill-opacity="1" d=" M0,-400 C220.75999450683594,-400 400,-220.75999450683594 400,0 C400,220.75999450683594 220.75999450683594,400 0,400 C-220.75999450683594,400 -400,220.75999450683594 -400,0 C-400,-220.75999450683594 -220.75999450683594,-400 0,-400z"></path>
    </g>
    <g transform="matrix(1,0,0,1,1010,1080)" opacity="1" style="mix-blend-mode: multiply; display: block;">
      <path fill="rgb(36,204,133)" fill-opacity="1" d=" M0,-400 C220.75999450683594,-400 400,-220.75999450683594 400,0 C400,220.75999450683594 220.75999450683594,400 0,400 C-220.75999450683594,400 -400,220.75999450683594 -400,0 C-400,-220.75999450683594 -220.75999450683594,-400 0,-400z"></path>
    </g>
    <g transform="matrix(1,0,0,1,1080,1080)" opacity="1" style="display: block;">
      <path stroke-linecap="butt" stroke-linejoin="miter" fill-opacity="0" stroke-miterlimit="4" stroke="rgb(36,204,133)" stroke-opacity="1" stroke-width="55" d="M0 0"></path>
    </g>
    <g transform="matrix(1,0,0,1,1080,1080)" opacity="1" style="display: block;">
      <path stroke-linecap="butt" stroke-linejoin="miter" fill-opacity="0" stroke-miterlimit="4" stroke="rgb(230,0,122)" stroke-opacity="1" stroke-width="55" d="M0 0"></path>
    </g>
    <g style="display: block;" transform="matrix(1,0,0,1,1079.0030517578125,1237.8890380859375)" opacity="1">
      <g opacity="1" transform="matrix(1,0,0,1,0,0)">
        <path fill="rgb(255,255,255)" fill-opacity="1" d=" M212.8800048828125,-27.020999908447266 C212.8800048828125,-11.25 221.68899536132812,-5.921000003814697 234.30599975585938,-5.921000003814697 C234.30599975585938,-5.921000003814697 243.7689971923828,-5.921000003814697 243.7689971923828,-5.921000003814697 C243.7689971923828,-5.921000003814697 243.7689971923828,-21.691999435424805 243.7689971923828,-21.691999435424805 C243.7689971923828,-21.691999435424805 237.13400268554688,-21.691999435424805 237.13400268554688,-21.691999435424805 C233.00100708007812,-21.691999435424805 231.47900390625,-23.214000701904297 231.47900390625,-26.80299949645996 C231.47900390625,-26.80299949645996 231.47900390625,-51.16699981689453 231.47900390625,-51.16699981689453 C231.47900390625,-51.16699981689453 243.66000366210938,-51.16699981689453 243.66000366210938,-51.16699981689453 C243.66000366210938,-51.16699981689453 243.66000366210938,-66.61100006103516 243.66000366210938,-66.61100006103516 C243.66000366210938,-66.61100006103516 231.47900390625,-66.61100006103516 231.47900390625,-66.61100006103516 C231.47900390625,-66.61100006103516 231.47900390625,-81.40299987792969 231.47900390625,-81.40299987792969 C231.47900390625,-81.40299987792969 212.8800048828125,-81.40299987792969 212.8800048828125,-81.40299987792969 C212.8800048828125,-81.40299987792969 212.8800048828125,-66.61100006103516 212.8800048828125,-66.61100006103516 C212.8800048828125,-66.61100006103516 205.48399353027344,-66.61100006103516 205.48399353027344,-66.61100006103516 C205.48399353027344,-66.61100006103516 205.48399353027344,-51.16699981689453 205.48399353027344,-51.16699981689453 C205.48399353027344,-51.16699981689453 212.8800048828125,-51.16699981689453 212.8800048828125,-51.16699981689453 C212.8800048828125,-51.16699981689453 212.8800048828125,-27.020999908447266 212.8800048828125,-27.020999908447266z"></path>
      </g>
      <g opacity="1" transform="matrix(1,0,0,1,0,0)">
        <path fill="rgb(255,255,255)" fill-opacity="1" d=" M156.375,-36.26599884033203 C156.375,-46.5989990234375 162.24899291992188,-51.38399887084961 168.99200439453125,-51.38399887084961 C175.51800537109375,-51.38399887084961 181.60800170898438,-46.5989990234375 181.60800170898438,-36.26599884033203 C181.60800170898438,-26.04199981689453 175.40899658203125,-21.148000717163086 168.7740020751953,-21.148000717163086 C162.031005859375,-21.148000717163086 156.375,-26.04199981689453 156.375,-36.26599884033203z M200.5330047607422,-36.26599884033203 C200.5330047607422,-55.516998291015625 186.82899475097656,-67.48100280761719 168.99200439453125,-67.48100280761719 C151.26300048828125,-67.48100280761719 137.4499969482422,-55.516998291015625 137.4499969482422,-36.26599884033203 C137.4499969482422,-17.014999389648438 150.93699645996094,-5.051000118255615 168.7740020751953,-5.051000118255615 C186.61099243164062,-5.051000118255615 200.5330047607422,-17.014999389648438 200.5330047607422,-36.26599884033203z"></path>
      </g>
      <g opacity="1" transform="matrix(1,0,0,1,0,0)">
        <path fill="rgb(255,255,255)" fill-opacity="1" d=" M109.58300018310547,-36.26599884033203 C109.58300018310547,-26.586000442504883 103.38400268554688,-21.256000518798828 96.31400299072266,-21.256000518798828 C89.35299682617188,-21.256000518798828 83.04399871826172,-26.69499969482422 83.04399871826172,-36.375 C83.04399871826172,-46.05500030517578 89.35299682617188,-51.2760009765625 96.31400299072266,-51.2760009765625 C103.38400268554688,-51.2760009765625 109.58300018310547,-45.94599914550781 109.58300018310547,-36.26599884033203z M64.11900329589844,-36.375 C64.11900329589844,-17.23200035095215 75.9739990234375,-5.051000118255615 90.875,-5.051000118255615 C99.79399871826172,-5.051000118255615 106.21099853515625,-9.074999809265137 109.58300018310547,-14.621999740600586 C109.58300018310547,-14.621999740600586 109.58300018310547,-5.921000003814697 109.58300018310547,-5.921000003814697 C109.58300018310547,-5.921000003814697 128.1820068359375,-5.921000003814697 128.1820068359375,-5.921000003814697 C128.1820068359375,-5.921000003814697 128.1820068359375,-86.40599822998047 128.1820068359375,-86.40599822998047 C128.1820068359375,-86.40599822998047 109.58300018310547,-86.40599822998047 109.58300018310547,-86.40599822998047 C109.58300018310547,-86.40599822998047 109.58300018310547,-58.236000061035156 109.58300018310547,-58.236000061035156 C105.88500213623047,-63.78300094604492 98.92400360107422,-67.48100280761719 90.875,-67.48100280761719 C75.9739990234375,-67.48100280761719 64.11900329589844,-55.518001556396484 64.11900329589844,-36.375z"></path>
      </g>
      <g opacity="1" transform="matrix(1,0,0,1,0,0)">
        <path fill="rgb(255,255,255)" fill-opacity="1" d=" M36.25299835205078,-36.26599884033203 C36.25299835205078,-26.586000442504883 30.05299949645996,-21.256000518798828 22.982999801635742,-21.256000518798828 C16.02199935913086,-21.256000518798828 9.71399974822998,-26.69499969482422 9.71399974822998,-36.375 C9.71399974822998,-46.05500030517578 16.02199935913086,-51.2760009765625 22.982999801635742,-51.2760009765625 C30.05299949645996,-51.2760009765625 36.25299835205078,-45.94599914550781 36.25299835205078,-36.26599884033203z M-9.211000442504883,-36.375 C-9.211000442504883,-17.23200035095215 2.6440000534057617,-5.051000118255615 17.43600082397461,-5.051000118255615 C26.46299934387207,-5.051000118255615 32.88100051879883,-9.184000015258789 36.25299835205078,-14.512999534606934 C36.25299835205078,-14.512999534606934 36.25299835205078,-5.921000003814697 36.25299835205078,-5.921000003814697 C36.25299835205078,-5.921000003814697 54.85100173950195,-5.921000003814697 54.85100173950195,-5.921000003814697 C54.85100173950195,-5.921000003814697 54.85100173950195,-66.61100006103516 54.85100173950195,-66.61100006103516 C54.85100173950195,-66.61100006103516 36.25299835205078,-66.61100006103516 36.25299835205078,-66.61100006103516 C36.25299835205078,-66.61100006103516 36.25299835205078,-58.01900100708008 36.25299835205078,-58.01900100708008 C32.9900016784668,-63.347999572753906 26.57200050354004,-67.48100280761719 17.545000076293945,-67.48100280761719 C2.6440000534057617,-67.48100280761719 -9.211000442504883,-55.518001556396484 -9.211000442504883,-36.375z"></path>
      </g>
      <g opacity="1" transform="matrix(1,0,0,1,0,0)">
        <path fill="rgb(255,255,255)" fill-opacity="1" d=" M-72.25700378417969,-5.921000003814697 C-72.25700378417969,-5.921000003814697 -53.65800094604492,-5.921000003814697 -53.65800094604492,-5.921000003814697 C-53.65800094604492,-5.921000003814697 -53.65800094604492,-31.371999740600586 -53.65800094604492,-31.371999740600586 C-53.65800094604492,-31.371999740600586 -35.167999267578125,-5.921000003814697 -35.167999267578125,-5.921000003814697 C-35.167999267578125,-5.921000003814697 -12.109999656677246,-5.921000003814697 -12.109999656677246,-5.921000003814697 C-12.109999656677246,-5.921000003814697 -37.56100082397461,-36.15700149536133 -37.56100082397461,-36.15700149536133 C-37.56100082397461,-36.15700149536133 -12.32699966430664,-66.61100006103516 -12.32699966430664,-66.61100006103516 C-12.32699966430664,-66.61100006103516 -35.277000427246094,-66.61100006103516 -35.277000427246094,-66.61100006103516 C-35.277000427246094,-66.61100006103516 -53.65800094604492,-41.922000885009766 -53.65800094604492,-41.922000885009766 C-53.65800094604492,-41.922000885009766 -53.65800094604492,-86.40599822998047 -53.65800094604492,-86.40599822998047 C-53.65800094604492,-86.40599822998047 -72.25700378417969,-86.40599822998047 -72.25700378417969,-86.40599822998047 C-72.25700378417969,-86.40599822998047 -72.25700378417969,-5.921000003814697 -72.25700378417969,-5.921000003814697z"></path>
      </g>
      <g opacity="1" transform="matrix(1,0,0,1,0,0)">
        <path fill="rgb(255,255,255)" fill-opacity="1" d=" M-104.11599731445312,-5.921000003814697 C-104.11599731445312,-5.921000003814697 -85.51799774169922,-5.921000003814697 -85.51799774169922,-5.921000003814697 C-85.51799774169922,-5.921000003814697 -85.51799774169922,-86.40599822998047 -85.51799774169922,-86.40599822998047 C-85.51799774169922,-86.40599822998047 -104.11599731445312,-86.40599822998047 -104.11599731445312,-86.40599822998047 C-104.11599731445312,-86.40599822998047 -104.11599731445312,-5.921000003814697 -104.11599731445312,-5.921000003814697z"></path>
      </g>
      <g opacity="1" transform="matrix(1,0,0,1,0,0)">
        <path fill="rgb(255,255,255)" fill-opacity="1" d=" M-157.68499755859375,-36.26599884033203 C-157.68499755859375,-46.5989990234375 -151.81100463867188,-51.38399887084961 -145.0679931640625,-51.38399887084961 C-138.54200744628906,-51.38399887084961 -132.4510040283203,-46.5989990234375 -132.4510040283203,-36.26599884033203 C-132.4510040283203,-26.04199981689453 -138.6510009765625,-21.148000717163086 -145.28599548339844,-21.148000717163086 C-152.0290069580078,-21.148000717163086 -157.68499755859375,-26.04199981689453 -157.68499755859375,-36.26599884033203z M-113.5260009765625,-36.26599884033203 C-113.5260009765625,-55.516998291015625 -127.23100280761719,-67.48100280761719 -145.0679931640625,-67.48100280761719 C-162.7969970703125,-67.48100280761719 -176.61000061035156,-55.516998291015625 -176.61000061035156,-36.26599884033203 C-176.61000061035156,-17.014999389648438 -163.1230010986328,-5.051000118255615 -145.28599548339844,-5.051000118255615 C-127.4489974975586,-5.051000118255615 -113.5260009765625,-17.014999389648438 -113.5260009765625,-36.26599884033203z"></path>
      </g>
      <g opacity="1" transform="matrix(1,0,0,1,0,0)">
        <path fill="rgb(255,255,255)" fill-opacity="1" d=" M-182.11399841308594,-57.69300079345703 C-182.11399841308594,-71.7239990234375 -191.4669952392578,-82.27300262451172 -210.1750030517578,-82.27300262451172 C-210.1750030517578,-82.27300262451172 -240.30299377441406,-82.27300262451172 -240.30299377441406,-82.27300262451172 C-240.30299377441406,-82.27300262451172 -240.30299377441406,-5.921000003814697 -240.30299377441406,-5.921000003814697 C-240.30299377441406,-5.921000003814697 -221.70399475097656,-5.921000003814697 -221.70399475097656,-5.921000003814697 C-221.70399475097656,-5.921000003814697 -221.70399475097656,-33.32899856567383 -221.70399475097656,-33.32899856567383 C-221.70399475097656,-33.32899856567383 -210.1750030517578,-33.32899856567383 -210.1750030517578,-33.32899856567383 C-190.70599365234375,-33.32899856567383 -182.11399841308594,-45.07600021362305 -182.11399841308594,-57.69300079345703z M-221.70399475097656,-48.12099838256836 C-221.70399475097656,-48.12099838256836 -221.70399475097656,-67.26399993896484 -221.70399475097656,-67.26399993896484 C-221.70399475097656,-67.26399993896484 -211.58900451660156,-67.26399993896484 -211.58900451660156,-67.26399993896484 C-204.1929931640625,-67.26399993896484 -201.03900146484375,-63.566001892089844 -201.03900146484375,-57.69300079345703 C-201.03900146484375,-51.81999969482422 -204.1929931640625,-48.12099838256836 -211.58900451660156,-48.12099838256836 C-211.58900451660156,-48.12099838256836 -221.70399475097656,-48.12099838256836 -221.70399475097656,-48.12099838256836z"></path>
      </g>
    </g>
    <g style="display: block;" transform="matrix(1,0,0,1,1079.0030517578125,1119.3890380859375)" opacity="1">
      <g opacity="1" transform="matrix(1,0,0,1,0,0)">
        <path fill="rgb(255,255,255)" fill-opacity="1" d=" M56.380001068115234,-27.871999740600586 C56.380001068115234,-24.923999786376953 55.777000427246094,-22.33300018310547 54.57099914550781,-20.100000381469727 C53.3650016784668,-17.865999221801758 51.7239990234375,-16.14699935913086 49.64699935913086,-14.940999984741211 C47.56999969482422,-13.734999656677246 45.279998779296875,-13.131999969482422 42.77899932861328,-13.131999969482422 C40.1879997253418,-13.131999969482422 37.8650016784668,-13.723999977111816 35.81100082397461,-14.907999992370605 C33.75600051879883,-16.090999603271484 32.137001037597656,-17.81100082397461 30.95400047302246,-20.066999435424805 C29.770000457763672,-22.32200050354004 29.17799949645996,-24.945999145507812 29.17799949645996,-27.93899917602539 C29.17799949645996,-30.97599983215332 29.770000457763672,-33.60100173950195 30.95400047302246,-35.8120002746582 C32.137001037597656,-38.02299880981445 33.75600051879883,-39.70800018310547 35.81100082397461,-40.869998931884766 C37.8650016784668,-42.03099822998047 40.1879997253418,-42.61199951171875 42.77899932861328,-42.61199951171875 C45.279998779296875,-42.61199951171875 47.56999969482422,-42.00899887084961 49.64699935913086,-40.803001403808594 C51.7239990234375,-39.59700012207031 53.3650016784668,-37.87699890136719 54.57099914550781,-35.64400100708008 C55.777000427246094,-33.40999984741211 56.380001068115234,-30.81999969482422 56.380001068115234,-27.871999740600586z M24.42099952697754,-27.93899917602539 C24.42099952697754,-24.187000274658203 25.16900062561035,-20.881000518798828 26.666000366210938,-18.023000717163086 C28.16200065612793,-15.163999557495117 30.23900032043457,-12.95300006866455 32.89699935913086,-11.390000343322754 C35.55400085449219,-9.826000213623047 38.55799865722656,-9.045000076293945 41.90800094604492,-9.045000076293945 C45.34700012207031,-9.045000076293945 48.34000015258789,-9.859999656677246 50.88600158691406,-11.491000175476074 C53.43199920654297,-13.121000289916992 55.26300048828125,-15.208999633789062 56.380001068115234,-17.7549991607666 C56.380001068115234,-17.7549991607666 56.380001068115234,-9.581000328063965 56.380001068115234,-9.581000328063965 C56.380001068115234,-9.581000328063965 61.06999969482422,-9.581000328063965 61.06999969482422,-9.581000328063965 C61.06999969482422,-9.581000328063965 61.06999969482422,-59.1609992980957 61.06999969482422,-59.1609992980957 C61.06999969482422,-59.1609992980957 56.380001068115234,-59.1609992980957 56.380001068115234,-59.1609992980957 C56.380001068115234,-59.1609992980957 56.380001068115234,-38.25699996948242 56.380001068115234,-38.25699996948242 C55.17399978637695,-40.757999420166016 53.275001525878906,-42.790000915527344 50.685001373291016,-44.354000091552734 C48.09400177001953,-45.91699981689453 45.191001892089844,-46.69900131225586 41.974998474121094,-46.69900131225586 C38.625,-46.69900131225586 35.62099838256836,-45.92900085449219 32.9640007019043,-44.38800048828125 C30.305999755859375,-42.84700012207031 28.216999053955078,-40.65800094604492 26.698999404907227,-37.821998596191406 C25.18000030517578,-34.98500061035156 24.42099952697754,-31.69099998474121 24.42099952697754,-27.93899917602539z"></path>
      </g>
      <g opacity="1" transform="matrix(1,0,0,1,0,0)">
        <path fill="rgb(255,255,255)" fill-opacity="1" d=" M1.3070000410079956,-46.83300018310547 C-1.4630000591278076,-46.83300018310547 -3.941999912261963,-46.24100112915039 -6.130000114440918,-45.05799865722656 C-8.319000244140625,-43.874000549316406 -9.994000434875488,-42.165000915527344 -11.154999732971191,-39.93199920654297 C-11.154999732971191,-39.93199920654297 -11.154999732971191,-46.16299819946289 -11.154999732971191,-46.16299819946289 C-11.154999732971191,-46.16299819946289 -15.845000267028809,-46.16299819946289 -15.845000267028809,-46.16299819946289 C-15.845000267028809,-46.16299819946289 -15.845000267028809,-9.581000328063965 -15.845000267028809,-9.581000328063965 C-15.845000267028809,-9.581000328063965 -11.154999732971191,-9.581000328063965 -11.154999732971191,-9.581000328063965 C-11.154999732971191,-9.581000328063965 -11.154999732971191,-29.547000885009766 -11.154999732971191,-29.547000885009766 C-11.154999732971191,-33.87900161743164 -10.105999946594238,-37.1619987487793 -8.005999565124512,-39.395999908447266 C-5.9070000648498535,-41.62900161743164 -3.0929999351501465,-42.74599838256836 0.4359999895095825,-42.74599838256836 C3.875,-42.74599838256836 6.5879998207092285,-41.69599914550781 8.576000213623047,-39.59700012207031 C10.562999725341797,-37.49700164794922 11.557999610900879,-34.459999084472656 11.557999610900879,-30.485000610351562 C11.557999610900879,-30.485000610351562 11.557999610900879,-9.581000328063965 11.557999610900879,-9.581000328063965 C11.557999610900879,-9.581000328063965 16.180999755859375,-9.581000328063965 16.180999755859375,-9.581000328063965 C16.180999755859375,-9.581000328063965 16.180999755859375,-31.020999908447266 16.180999755859375,-31.020999908447266 C16.180999755859375,-36.15700149536133 14.795999526977539,-40.07699966430664 12.027000427246094,-42.779998779296875 C9.256999969482422,-45.481998443603516 5.684000015258789,-46.83300018310547 1.3070000410079956,-46.83300018310547z"></path>
      </g>
      <g opacity="1" transform="matrix(1,0,0,1,0,0)">
        <path fill="rgb(255,255,255)" fill-opacity="1" d=" M-31.253999710083008,-27.871999740600586 C-31.253999710083008,-24.923999786376953 -31.85700035095215,-22.33300018310547 -33.0629997253418,-20.100000381469727 C-34.26900100708008,-17.865999221801758 -35.9109992980957,-16.14699935913086 -37.987998962402344,-14.940999984741211 C-40.064998626708984,-13.734999656677246 -42.354000091552734,-13.131999969482422 -44.85499954223633,-13.131999969482422 C-47.44599914550781,-13.131999969482422 -49.76900100708008,-13.723999977111816 -51.823001861572266,-14.907999992370605 C-53.87799835205078,-16.090999603271484 -55.49800109863281,-17.81100082397461 -56.680999755859375,-20.066999435424805 C-57.8650016784668,-22.32200050354004 -58.45600128173828,-24.945999145507812 -58.45600128173828,-27.93899917602539 C-58.45600128173828,-30.97599983215332 -57.8650016784668,-33.60100173950195 -56.680999755859375,-35.8120002746582 C-55.49800109863281,-38.02299880981445 -53.87799835205078,-39.70800018310547 -51.823001861572266,-40.869998931884766 C-49.76900100708008,-42.03099822998047 -47.44599914550781,-42.61199951171875 -44.85499954223633,-42.61199951171875 C-42.354000091552734,-42.61199951171875 -40.064998626708984,-42.00899887084961 -37.987998962402344,-40.803001403808594 C-35.9109992980957,-39.59700012207031 -34.26900100708008,-37.87699890136719 -33.0629997253418,-35.64400100708008 C-31.85700035095215,-33.40999984741211 -31.253999710083008,-30.81999969482422 -31.253999710083008,-27.871999740600586z M-63.2130012512207,-27.93899917602539 C-63.2130012512207,-24.187000274658203 -62.465999603271484,-20.881000518798828 -60.96900177001953,-18.023000717163086 C-59.472999572753906,-15.163999557495117 -57.395999908447266,-12.95300006866455 -54.737998962402344,-11.390000343322754 C-52.08100128173828,-9.826000213623047 -49.0989990234375,-9.045000076293945 -45.792999267578125,-9.045000076293945 C-42.308998107910156,-9.045000076293945 -39.305999755859375,-9.859999656677246 -36.78200149536133,-11.491000175476074 C-34.25899887084961,-13.121000289916992 -32.41600036621094,-15.185999870300293 -31.253999710083008,-17.687999725341797 C-31.253999710083008,-17.687999725341797 -31.253999710083008,-9.581000328063965 -31.253999710083008,-9.581000328063965 C-31.253999710083008,-9.581000328063965 -26.56399917602539,-9.581000328063965 -26.56399917602539,-9.581000328063965 C-26.56399917602539,-9.581000328063965 -26.56399917602539,-46.16299819946289 -26.56399917602539,-46.16299819946289 C-26.56399917602539,-46.16299819946289 -31.253999710083008,-46.16299819946289 -31.253999710083008,-46.16299819946289 C-31.253999710083008,-46.16299819946289 -31.253999710083008,-38.12300109863281 -31.253999710083008,-38.12300109863281 C-32.37099838256836,-40.624000549316406 -34.19200134277344,-42.67900085449219 -36.71500015258789,-44.2869987487793 C-39.23899841308594,-45.89500045776367 -42.242000579833984,-46.69900131225586 -45.72600173950195,-46.69900131225586 C-49.07600021362305,-46.69900131225586 -52.08100128173828,-45.92900085449219 -54.737998962402344,-44.38800048828125 C-57.395999908447266,-42.84700012207031 -59.472999572753906,-40.65800094604492 -60.96900177001953,-37.821998596191406 C-62.465999603271484,-34.98500061035156 -63.2130012512207,-31.69099998474121 -63.2130012512207,-27.93899917602539z"></path>
      </g>
    </g>
    <g style="display: block;" transform="matrix(1,0,0,1,1079.0030517578125,1119.3890380859375)" opacity="1">
      <g opacity="1" transform="matrix(1,0,0,1,0,0)">
        <path fill="rgb(255,255,255)" fill-opacity="1" d=" M269.302001953125,-115.7030029296875 C269.302001953125,-115.7030029296875 249.5070037841797,-115.7030029296875 249.5070037841797,-115.7030029296875 C247.98399353027344,-112.44000244140625 245.04800415039062,-109.8290023803711 239.82699584960938,-109.8290023803711 C233.84500122070312,-109.8290023803711 228.9510040283203,-113.5270004272461 228.29800415039062,-121.46700286865234 C228.29800415039062,-121.46700286865234 270.3900146484375,-121.46700286865234 270.3900146484375,-121.46700286865234 C270.6080017089844,-123.31600189208984 270.71600341796875,-125.16500091552734 270.71600341796875,-126.90499877929688 C270.71600341796875,-145.39500427246094 258.2090148925781,-157.14199829101562 240.47999572753906,-157.14199829101562 C222.4250030517578,-157.14199829101562 209.80799865722656,-145.177001953125 209.80799865722656,-125.9260025024414 C209.80799865722656,-106.67500305175781 222.64300537109375,-94.71099853515625 240.47999572753906,-94.71099853515625 C255.59800720214844,-94.71099853515625 266.364990234375,-103.8479995727539 269.302001953125,-115.7030029296875z M240.26199340820312,-142.24099731445312 C246.46200561523438,-142.24099731445312 251.6820068359375,-138.43499755859375 251.6820068359375,-131.8000030517578 C251.6820068359375,-131.8000030517578 228.40699768066406,-131.8000030517578 228.40699768066406,-131.8000030517578 C229.4949951171875,-138.54299926757812 234.17100524902344,-142.24099731445312 240.26199340820312,-142.24099731445312z"></path>
      </g>
      <g opacity="1" transform="matrix(1,0,0,1,0,0)">
        <path fill="rgb(255,255,255)" fill-opacity="1" d=" M172.5959930419922,-116.68099975585938 C172.5959930419922,-100.91000366210938 181.40499877929688,-95.58100128173828 194.02200317382812,-95.58100128173828 C194.02200317382812,-95.58100128173828 203.48500061035156,-95.58100128173828 203.48500061035156,-95.58100128173828 C203.48500061035156,-95.58100128173828 203.48500061035156,-111.35199737548828 203.48500061035156,-111.35199737548828 C203.48500061035156,-111.35199737548828 196.85000610351562,-111.35199737548828 196.85000610351562,-111.35199737548828 C192.7169952392578,-111.35199737548828 191.19400024414062,-112.875 191.19400024414062,-116.46399688720703 C191.19400024414062,-116.46399688720703 191.19400024414062,-140.82699584960938 191.19400024414062,-140.82699584960938 C191.19400024414062,-140.82699584960938 203.37600708007812,-140.82699584960938 203.37600708007812,-140.82699584960938 C203.37600708007812,-140.82699584960938 203.37600708007812,-156.27200317382812 203.37600708007812,-156.27200317382812 C203.37600708007812,-156.27200317382812 191.19400024414062,-156.27200317382812 191.19400024414062,-156.27200317382812 C191.19400024414062,-156.27200317382812 191.19400024414062,-171.06399536132812 191.19400024414062,-171.06399536132812 C191.19400024414062,-171.06399536132812 172.5959930419922,-171.06399536132812 172.5959930419922,-171.06399536132812 C172.5959930419922,-171.06399536132812 172.5959930419922,-156.27200317382812 172.5959930419922,-156.27200317382812 C172.5959930419922,-156.27200317382812 165.1999969482422,-156.27200317382812 165.1999969482422,-156.27200317382812 C165.1999969482422,-156.27200317382812 165.1999969482422,-140.82699584960938 165.1999969482422,-140.82699584960938 C165.1999969482422,-140.82699584960938 172.5959930419922,-140.82699584960938 172.5959930419922,-140.82699584960938 C172.5959930419922,-140.82699584960938 172.5959930419922,-116.68099975585938 172.5959930419922,-116.68099975585938z"></path>
      </g>
      <g opacity="1" transform="matrix(1,0,0,1,0,0)">
        <path fill="rgb(255,255,255)" fill-opacity="1" d=" M138.093994140625,-125.9260025024414 C138.093994140625,-116.24600219726562 131.89500427246094,-110.91699981689453 124.82499694824219,-110.91699981689453 C117.86399841308594,-110.91699981689453 111.55599975585938,-116.3550033569336 111.55599975585938,-126.03500366210938 C111.55599975585938,-135.71499633789062 117.86399841308594,-140.93600463867188 124.82499694824219,-140.93600463867188 C131.89500427246094,-140.93600463867188 138.093994140625,-135.6060028076172 138.093994140625,-125.9260025024414z M92.62999725341797,-126.03500366210938 C92.62999725341797,-106.89199829101562 104.48600006103516,-94.71099853515625 119.27799987792969,-94.71099853515625 C128.30499267578125,-94.71099853515625 134.7220001220703,-98.84400177001953 138.093994140625,-104.1729965209961 C138.093994140625,-104.1729965209961 138.093994140625,-95.58100128173828 138.093994140625,-95.58100128173828 C138.093994140625,-95.58100128173828 156.6929931640625,-95.58100128173828 156.6929931640625,-95.58100128173828 C156.6929931640625,-95.58100128173828 156.6929931640625,-156.27200317382812 156.6929931640625,-156.27200317382812 C156.6929931640625,-156.27200317382812 138.093994140625,-156.27200317382812 138.093994140625,-156.27200317382812 C138.093994140625,-156.27200317382812 138.093994140625,-147.6790008544922 138.093994140625,-147.6790008544922 C134.83099365234375,-153.00799560546875 128.41400146484375,-157.14199829101562 119.38700103759766,-157.14199829101562 C104.48600006103516,-157.14199829101562 92.62999725341797,-145.17799377441406 92.62999725341797,-126.03500366210938z"></path>
      </g>
      <g opacity="1" transform="matrix(1,0,0,1,0,0)">
        <path fill="rgb(255,255,255)" fill-opacity="1" d=" M68.7040023803711,-123.7509994506836 C68.7040023803711,-134.19200134277344 73.81600189208984,-137.23800659179688 82.6259994506836,-137.23800659179688 C82.6259994506836,-137.23800659179688 87.73799896240234,-137.23800659179688 87.73799896240234,-137.23800659179688 C87.73799896240234,-137.23800659179688 87.73799896240234,-156.9239959716797 87.73799896240234,-156.9239959716797 C79.58100128173828,-156.9239959716797 72.94599914550781,-152.57400512695312 68.7040023803711,-146.15699768066406 C68.7040023803711,-146.15699768066406 68.7040023803711,-156.27200317382812 68.7040023803711,-156.27200317382812 C68.7040023803711,-156.27200317382812 50.10499954223633,-156.27200317382812 50.10499954223633,-156.27200317382812 C50.10499954223633,-156.27200317382812 50.10499954223633,-95.58100128173828 50.10499954223633,-95.58100128173828 C50.10499954223633,-95.58100128173828 68.7040023803711,-95.58100128173828 68.7040023803711,-95.58100128173828 C68.7040023803711,-95.58100128173828 68.7040023803711,-123.7509994506836 68.7040023803711,-123.7509994506836z"></path>
      </g>
      <g opacity="1" transform="matrix(1,0,0,1,0,0)">
        <path fill="rgb(255,255,255)" fill-opacity="1" d=" M9.194999694824219,-116.68099975585938 C9.194999694824219,-100.91000366210938 18.003999710083008,-95.58100128173828 30.621000289916992,-95.58100128173828 C30.621000289916992,-95.58100128173828 40.08399963378906,-95.58100128173828 40.08399963378906,-95.58100128173828 C40.08399963378906,-95.58100128173828 40.08399963378906,-111.35199737548828 40.08399963378906,-111.35199737548828 C40.08399963378906,-111.35199737548828 33.44900131225586,-111.35199737548828 33.44900131225586,-111.35199737548828 C29.31599998474121,-111.35199737548828 27.79400062561035,-112.875 27.79400062561035,-116.46399688720703 C27.79400062561035,-116.46399688720703 27.79400062561035,-140.82699584960938 27.79400062561035,-140.82699584960938 C27.79400062561035,-140.82699584960938 39.974998474121094,-140.82699584960938 39.974998474121094,-140.82699584960938 C39.974998474121094,-140.82699584960938 39.974998474121094,-156.27200317382812 39.974998474121094,-156.27200317382812 C39.974998474121094,-156.27200317382812 27.79400062561035,-156.27200317382812 27.79400062561035,-156.27200317382812 C27.79400062561035,-156.27200317382812 27.79400062561035,-171.06399536132812 27.79400062561035,-171.06399536132812 C27.79400062561035,-171.06399536132812 9.194999694824219,-171.06399536132812 9.194999694824219,-171.06399536132812 C9.194999694824219,-171.06399536132812 9.194999694824219,-156.27200317382812 9.194999694824219,-156.27200317382812 C9.194999694824219,-156.27200317382812 1.7990000247955322,-156.27200317382812 1.7990000247955322,-156.27200317382812 C1.7990000247955322,-156.27200317382812 1.7990000247955322,-140.82699584960938 1.7990000247955322,-140.82699584960938 C1.7990000247955322,-140.82699584960938 9.194999694824219,-140.82699584960938 9.194999694824219,-140.82699584960938 C9.194999694824219,-140.82699584960938 9.194999694824219,-116.68099975585938 9.194999694824219,-116.68099975585938z"></path>
      </g>
      <g opacity="1" transform="matrix(1,0,0,1,0,0)">
        <path fill="rgb(255,255,255)" fill-opacity="1" d=" M-4.735000133514404,-113.20099639892578 C-5.060999870300293,-135.82400512695312 -37.909000396728516,-128.9720001220703 -37.909000396728516,-138.65199279785156 C-37.909000396728516,-141.58900451660156 -35.51599884033203,-143.32899475097656 -31.165000915527344,-143.32899475097656 C-25.944000244140625,-143.32899475097656 -22.790000915527344,-140.61000061035156 -22.246000289916992,-136.4770050048828 C-22.246000289916992,-136.4770050048828 -5.061999797821045,-136.4770050048828 -5.061999797821045,-136.4770050048828 C-6.257999897003174,-148.4409942626953 -14.958999633789062,-157.14199829101562 -30.621000289916992,-157.14199829101562 C-46.500999450683594,-157.14199829101562 -55.31100082397461,-148.65899658203125 -55.31100082397461,-138.3260040283203 C-55.31100082397461,-116.02899932861328 -22.246000289916992,-123.0989990234375 -22.246000289916992,-113.30999755859375 C-22.246000289916992,-110.59100341796875 -24.74799919128418,-108.41500091552734 -29.534000396728516,-108.41500091552734 C-34.645999908447266,-108.41500091552734 -38.45199966430664,-111.24299621582031 -38.887001037597656,-115.48500061035156 C-38.887001037597656,-115.48500061035156 -57.26900100708008,-115.48500061035156 -57.26900100708008,-115.48500061035156 C-56.39899826049805,-103.73799896240234 -45.52199935913086,-94.71099853515625 -29.31599998474121,-94.71099853515625 C-14.08899974822998,-94.71099853515625 -4.735000133514404,-102.6510009765625 -4.735000133514404,-113.20099639892578z"></path>
      </g>
      <g opacity="1" transform="matrix(1,0,0,1,0,0)">
        <path fill="rgb(255,255,255)" fill-opacity="1" d=" M-82.1989974975586,-126.03500366210938 C-82.1989974975586,-116.3550033569336 -88.50700378417969,-110.91699981689453 -95.5770034790039,-110.91699981689453 C-102.53800201416016,-110.91699981689453 -108.84600067138672,-116.24600219726562 -108.84600067138672,-125.9260025024414 C-108.84600067138672,-135.6060028076172 -102.53800201416016,-140.93600463867188 -95.5770034790039,-140.93600463867188 C-88.50700378417969,-140.93600463867188 -82.1989974975586,-135.71499633789062 -82.1989974975586,-126.03500366210938z M-108.73699951171875,-147.6790008544922 C-108.73699951171875,-147.6790008544922 -108.73699951171875,-176.06700134277344 -108.73699951171875,-176.06700134277344 C-108.73699951171875,-176.06700134277344 -127.33599853515625,-176.06700134277344 -127.33599853515625,-176.06700134277344 C-127.33599853515625,-176.06700134277344 -127.33599853515625,-95.58100128173828 -127.33599853515625,-95.58100128173828 C-127.33599853515625,-95.58100128173828 -108.73699951171875,-95.58100128173828 -108.73699951171875,-95.58100128173828 C-108.73699951171875,-95.58100128173828 -108.73699951171875,-104.06500244140625 -108.73699951171875,-104.06500244140625 C-105.36499786376953,-98.73600006103516 -98.9489974975586,-94.71099853515625 -90.02999877929688,-94.71099853515625 C-75.12899780273438,-94.71099853515625 -63.27399826049805,-106.89199829101562 -63.27399826049805,-126.03500366210938 C-63.27399826049805,-145.17799377441406 -75.0199966430664,-157.14199829101562 -90.02999877929688,-157.14199829101562 C-98.73100280761719,-157.14199829101562 -105.36499786376953,-153.11700439453125 -108.73699951171875,-147.6790008544922z"></path>
      </g>
      <g opacity="1" transform="matrix(1,0,0,1,0,0)">
        <path fill="rgb(255,255,255)" fill-opacity="1" d=" M-140.197998046875,-156.27200317382812 C-140.197998046875,-156.27200317382812 -158.7969970703125,-156.27200317382812 -158.7969970703125,-156.27200317382812 C-158.7969970703125,-156.27200317382812 -158.7969970703125,-123.31600189208984 -158.7969970703125,-123.31600189208984 C-158.7969970703125,-115.05000305175781 -163.36599731445312,-110.48200225830078 -170.54400634765625,-110.48200225830078 C-177.5050048828125,-110.48200225830078 -182.1820068359375,-115.05000305175781 -182.1820068359375,-123.31600189208984 C-182.1820068359375,-123.31600189208984 -182.1820068359375,-156.27200317382812 -182.1820068359375,-156.27200317382812 C-182.1820068359375,-156.27200317382812 -200.6719970703125,-156.27200317382812 -200.6719970703125,-156.27200317382812 C-200.6719970703125,-156.27200317382812 -200.6719970703125,-120.81400299072266 -200.6719970703125,-120.81400299072266 C-200.6719970703125,-104.60800170898438 -191.20899963378906,-94.9280014038086 -177.17799377441406,-94.9280014038086 C-169.02099609375,-94.9280014038086 -162.4949951171875,-98.6259994506836 -158.7969970703125,-103.84700012207031 C-158.7969970703125,-103.84700012207031 -158.7969970703125,-95.58100128173828 -158.7969970703125,-95.58100128173828 C-158.7969970703125,-95.58100128173828 -140.197998046875,-95.58100128173828 -140.197998046875,-95.58100128173828 C-140.197998046875,-95.58100128173828 -140.197998046875,-156.27200317382812 -140.197998046875,-156.27200317382812z"></path>
      </g>
      <g opacity="1" transform="matrix(1,0,0,1,0,0)">
        <path fill="rgb(255,255,255)" fill-opacity="1" d=" M-211.07699584960938,-118.31300354003906 C-211.07699584960938,-143.8730010986328 -248.8179931640625,-137.89100646972656 -248.8179931640625,-151.16000366210938 C-248.8179931640625,-155.9459991455078 -245.4459991455078,-158.22999572753906 -240.98699951171875,-158.12100219726562 C-235.98399353027344,-158.01199340820312 -232.5030059814453,-155.0749969482422 -232.177001953125,-150.18099975585938 C-232.177001953125,-150.18099975585938 -212.05599975585938,-150.18099975585938 -212.05599975585938,-150.18099975585938 C-212.81700134277344,-164.7550048828125 -224.02000427246094,-173.02099609375 -240.66099548339844,-173.02099609375 C-256.64898681640625,-173.02099609375 -268.5039978027344,-164.97300720214844 -268.5039978027344,-150.5070037841797 C-268.72198486328125,-123.42500305175781 -230.54600524902344,-131.03799438476562 -230.54600524902344,-116.89900207519531 C-230.54600524902344,-112.44000244140625 -234.0260009765625,-109.72000122070312 -239.46400451660156,-109.72000122070312 C-244.68499755859375,-109.72000122070312 -248.38299560546875,-112.54900360107422 -248.927001953125,-118.4219970703125 C-248.927001953125,-118.4219970703125 -268.72198486328125,-118.4219970703125 -268.72198486328125,-118.4219970703125 C-268.1780090332031,-102.97699737548828 -255.34300231933594,-94.81999969482422 -238.9199981689453,-94.81999969482422 C-221.08299255371094,-94.81999969482422 -211.07699584960938,-105.47899627685547 -211.07699584960938,-118.31300354003906z"></path>
      </g>
    </g>
  </g>
</svg>